HIERARCHY
ROOT Hips
{
	OFFSET 0.000000 83.214638 0.000000
	CHANNELS 6 Xposition Yposition Zposition Xrotation Yrotation Zrotation
	JOINT Pelvis
	{
		OFFSET 0.000000 0.000000 0.000000
		CHANNELS 3 Xrotation Yrotation Zrotation
		JOINT LeftUpLeg
		{
			OFFSET 8.479700 -4.795502 -0.379100
			CHANNELS 3 Xrotation Yrotation Zrotation
			JOINT LeftLeg
			{
				OFFSET 0.024144 -32.555107 0.112900
				CHANNELS 3 Xrotation Yrotation Zrotation
				JOINT LeftFoot
				{
					OFFSET -0.024144 -32.638630 -3.012600
					CHANNELS 3 Xrotation Yrotation Zrotation
					JOINT LeftToeBase
					{
						OFFSET 0.970200 -13.225400 11.864200
						CHANNELS 3 Xrotation Yrotation Zrotation
						End Site
						{
							OFFSET 0.000000 12.319262 0.000000
						}
					}
					JOINT LFootTongue
					{
						OFFSET 1.142400 -1.059800 6.665200
						CHANNELS 3 Xrotation Yrotation Zrotation
						End Site
						{
							OFFSET 0.000000 12.319262 0.000000
						}
					}
				}
				JOINT LeftPantLeg
				{
					OFFSET 0.918482 -16.533964 -2.284700
					CHANNELS 3 Xrotation Yrotation Zrotation
					End Site
					{
						OFFSET 0.350399 24.744368 0.000000
					}
				}
			}
		}
		JOINT RightUpLeg
		{
			OFFSET -8.479700 -4.795502 -0.379100
			CHANNELS 3 Xrotation Yrotation Zrotation
			JOINT RightLeg
			{
				OFFSET -0.023144 -32.555092 0.112900
				CHANNELS 3 Xrotation Yrotation Zrotation
				JOINT RightFoot
				{
					OFFSET 0.023144 -32.638641 -3.012700
					CHANNELS 3 Xrotation Yrotation Zrotation
					JOINT RightToeBase
					{
						OFFSET -0.970200 -13.225400 11.864200
						CHANNELS 3 Xrotation Yrotation Zrotation
						End Site
						{
							OFFSET 0.000000 12.319244 0.000000
						}
					}
					JOINT RFootTongue
					{
						OFFSET -1.142200 -1.059800 6.665200
						CHANNELS 3 Xrotation Yrotation Zrotation
						End Site
						{
							OFFSET 0.000000 12.319243 0.000000
						}
					}
				}
				JOINT RightPantLeg
				{
					OFFSET -0.919482 -16.533978 -2.284800
					CHANNELS 3 Xrotation Yrotation Zrotation
					End Site
					{
						OFFSET -0.350400 24.744419 0.000000
					}
				}
			}
		}
	}
	JOINT Spine
	{
		OFFSET 0.000000 7.722000 1.166200
		CHANNELS 3 Xrotation Yrotation Zrotation
		JOINT Spine1
		{
			OFFSET 0.000000 12.024101 0.248800
			CHANNELS 3 Xrotation Yrotation Zrotation
			JOINT Spine2
			{
				OFFSET 0.000000 11.502998 -0.491200
				CHANNELS 3 Xrotation Yrotation Zrotation
				JOINT Neck
				{
					OFFSET 0.000000 18.430702 -3.123100
					CHANNELS 3 Xrotation Yrotation Zrotation
					JOINT Head
					{
						OFFSET 0.000000 9.051102 1.034000
						CHANNELS 3 Xrotation Yrotation Zrotation
						JOINT HairB
						{
							OFFSET 0.208400 24.786102 24.822300
							CHANNELS 3 Xrotation Yrotation Zrotation
							End Site
							{
								OFFSET 0.000000 32.263779 0.000000
							}
						}
						JOINT HairA
						{
							OFFSET -7.081100 24.428299 23.196600
							CHANNELS 3 Xrotation Yrotation Zrotation
							End Site
							{
								OFFSET 0.000000 32.263779 0.000000
							}
						}
						JOINT Hat
						{
							OFFSET 16.728800 15.048294 -15.439601
							CHANNELS 3 Xrotation Yrotation Zrotation
							End Site
							{
								OFFSET 0.000000 32.263779 0.000000
							}
						}
					}
				}
				JOINT LeftShoulder
				{
					OFFSET 6.197800 13.665199 -4.064700
					CHANNELS 3 Xrotation Yrotation Zrotation
					JOINT LeftArm
					{
						OFFSET 7.778100 -0.187103 -1.709300
						CHANNELS 3 Xrotation Yrotation Zrotation
						JOINT LeftForeArm
						{
							OFFSET 22.049376 0.000000 0.000000
							CHANNELS 3 Xrotation Yrotation Zrotation
							JOINT LeftHand
							{
								OFFSET 23.009392 0.000000 0.000000
								CHANNELS 3 Xrotation Yrotation Zrotation
								JOINT LeftHandThumb1
								{
									OFFSET 3.507191 -2.063065 3.133727
									CHANNELS 3 Xrotation Yrotation Zrotation
									JOINT LeftHandThumb2
									{
										OFFSET 3.101337 -1.790558 1.790558
										CHANNELS 3 Xrotation Yrotation Zrotation
										JOINT LeftHandThumb3
										{
											OFFSET 3.058640 -1.765907 1.765906
											CHANNELS 3 Xrotation Yrotation Zrotation
											End Site
											{
												OFFSET -0.415260 3.926476 -0.049563
											}
										}
									}
								}
								JOINT LeftHandIndex1
								{
									OFFSET 11.334419 -0.901459 3.706815
									CHANNELS 3 Xrotation Yrotation Zrotation
									JOINT LeftHandIndex2
									{
										OFFSET 3.283112 0.000000 0.000000
										CHANNELS 3 Xrotation Yrotation Zrotation
										JOINT LeftHandIndex3
										{
											OFFSET 3.323853 0.000000 0.000000
											CHANNELS 3 Xrotation Yrotation Zrotation
											End Site
											{
												OFFSET -1.135597 3.097809 0.402452
											}
										}
									}
								}
								JOINT LeftHandMiddle1
								{
									OFFSET 11.335861 0.000000 0.000000
									CHANNELS 3 Xrotation Yrotation Zrotation
									JOINT LeftHandMiddle2
									{
										OFFSET 3.410492 0.000000 0.000000
										CHANNELS 3 Xrotation Yrotation Zrotation
										JOINT LeftHandMiddle3
										{
											OFFSET 3.312172 0.000000 0.000000
											CHANNELS 3 Xrotation Yrotation Zrotation
											End Site
											{
												OFFSET -1.150200 3.080154 0.400270
											}
										}
									}
								}
								JOINT LeftHandRing1
								{
									OFFSET 11.514786 -0.013176 -3.003090
									CHANNELS 3 Xrotation Yrotation Zrotation
									JOINT LeftHandRing2
									{
										OFFSET 3.053307 0.000000 0.000000
										CHANNELS 3 Xrotation Yrotation Zrotation
										JOINT LeftHandRing3
										{
											OFFSET 3.295807 0.000000 0.000000
											CHANNELS 3 Xrotation Yrotation Zrotation
											End Site
											{
												OFFSET -1.281006 3.013344 0.375733
											}
										}
									}
								}
								JOINT LeftHandPinky1
								{
									OFFSET 10.518692 -0.960396 -5.730441
									CHANNELS 3 Xrotation Yrotation Zrotation
									JOINT LeftHandPinky2
									{
										OFFSET 2.861649 0.000000 0.000000
										CHANNELS 3 Xrotation Yrotation Zrotation
										JOINT LeftHandPinky3
										{
											OFFSET 2.863380 0.000000 0.000000
											CHANNELS 3 Xrotation Yrotation Zrotation
											End Site
											{
												OFFSET -0.843597 2.711159 0.369971
											}
										}
									}
								}
							}
							JOINT LSleeve
							{
								OFFSET 6.676277 -0.344902 -1.011730
								CHANNELS 3 Xrotation Yrotation Zrotation
								End Site
								{
									OFFSET 0.000000 14.885353 0.000000
								}
							}
						}
					}
				}
				JOINT RightShoulder
				{
					OFFSET -6.197800 13.665199 -4.064700
					CHANNELS 3 Xrotation Yrotation Zrotation
					JOINT RightArm
					{
						OFFSET -7.778100 -0.187103 -1.709300
						CHANNELS 3 Xrotation Yrotation Zrotation
						JOINT RightForeArm
						{
							OFFSET -22.049376 0.000000 0.000000
							CHANNELS 3 Xrotation Yrotation Zrotation
							JOINT RightHand
							{
								OFFSET -23.009392 0.000000 0.000000
								CHANNELS 3 Xrotation Yrotation Zrotation
								JOINT RightHandThumb1
								{
									OFFSET -3.507191 -2.063065 3.133727
									CHANNELS 3 Xrotation Yrotation Zrotation
									JOINT RightHandThumb2
									{
										OFFSET -3.101337 -1.790558 1.790558
										CHANNELS 3 Xrotation Yrotation Zrotation
										JOINT RightHandThumb3
										{
											OFFSET -3.058640 -1.765907 1.765906
											CHANNELS 3 Xrotation Yrotation Zrotation
											End Site
											{
												OFFSET 0.415260 3.926476 -0.049563
											}
										}
									}
								}
								JOINT RightHandIndex1
								{
									OFFSET -11.334419 -0.901459 3.706815
									CHANNELS 3 Xrotation Yrotation Zrotation
									JOINT RightHandIndex2
									{
										OFFSET -3.283112 0.000000 0.000000
										CHANNELS 3 Xrotation Yrotation Zrotation
										JOINT RightHandIndex3
										{
											OFFSET -3.323853 0.000000 0.000000
											CHANNELS 3 Xrotation Yrotation Zrotation
											End Site
											{
												OFFSET 1.135597 3.097809 0.402452
											}
										}
									}
								}
								JOINT RightHandMiddle1
								{
									OFFSET -11.335861 0.000000 0.000000
									CHANNELS 3 Xrotation Yrotation Zrotation
									JOINT RightHandMiddle2
									{
										OFFSET -3.410492 0.000000 0.000000
										CHANNELS 3 Xrotation Yrotation Zrotation
										JOINT RightHandMiddle3
										{
											OFFSET -3.312172 0.000000 0.000000
											CHANNELS 3 Xrotation Yrotation Zrotation
											End Site
											{
												OFFSET 1.150200 3.080154 0.400270
											}
										}
									}
								}
								JOINT RightHandRing1
								{
									OFFSET -11.514786 -0.013176 -3.003090
									CHANNELS 3 Xrotation Yrotation Zrotation
									JOINT RightHandRing2
									{
										OFFSET -3.053307 0.000000 0.000000
										CHANNELS 3 Xrotation Yrotation Zrotation
										JOINT RightHandRing3
										{
											OFFSET -3.295807 0.000000 0.000000
											CHANNELS 3 Xrotation Yrotation Zrotation
											End Site
											{
												OFFSET 1.281006 3.013344 0.375733
											}
										}
									}
								}
								JOINT RightHandPinky1
								{
									OFFSET -10.518692 -0.960396 -5.730441
									CHANNELS 3 Xrotation Yrotation Zrotation
									JOINT RightHandPinky2
									{
										OFFSET -2.861649 0.000000 0.000000
										CHANNELS 3 Xrotation Yrotation Zrotation
										JOINT RightHandPinky3
										{
											OFFSET -2.863380 0.000000 0.000000
											CHANNELS 3 Xrotation Yrotation Zrotation
											End Site
											{
												OFFSET 0.843597 2.711159 0.369971
											}
										}
									}
								}
							}
							JOINT RSleeve
							{
								OFFSET -6.676277 -0.344902 -1.011730
								CHANNELS 3 Xrotation Yrotation Zrotation
								End Site
								{
									OFFSET 0.000000 14.885353 0.000000
								}
							}
						}
					}
				}
				JOINT Backpack
				{
					OFFSET 0.000000 -2.471497 36.677502
					CHANNELS 3 Xrotation Yrotation Zrotation
					End Site
					{
						OFFSET 0.000000 20.427315 0.000000
					}
				}
				JOINT Hood
				{
					OFFSET 0.000000 18.754097 -10.431000
					CHANNELS 3 Xrotation Yrotation Zrotation
					JOINT Hood1
					{
						OFFSET 0.000000 -5.011002 -7.685901
						CHANNELS 3 Xrotation Yrotation Zrotation
						End Site
						{
							OFFSET 0.000000 9.175140 0.000000
						}
					}
				}
				JOINT LHoodieString
				{
					OFFSET 5.250500 16.397697 3.089900
					CHANNELS 3 Xrotation Yrotation Zrotation
					JOINT LHoodieString1
					{
						OFFSET 0.257700 -6.364304 3.694600
						CHANNELS 3 Xrotation Yrotation Zrotation
						JOINT LHoodieString2
						{
							OFFSET 0.000000 -9.643799 2.679100
							CHANNELS 3 Xrotation Yrotation Zrotation
							End Site
							{
								OFFSET 0.000000 10.009018 0.000000
							}
						}
					}
				}
				JOINT RHoodieString
				{
					OFFSET -5.250500 16.397697 3.089900
					CHANNELS 3 Xrotation Yrotation Zrotation
					JOINT RHoodieString1
					{
						OFFSET -0.257700 -6.364304 3.694600
						CHANNELS 3 Xrotation Yrotation Zrotation
						JOINT RHoodieString2
						{
							OFFSET 0.000000 -9.643799 2.679100
							CHANNELS 3 Xrotation Yrotation Zrotation
							End Site
							{
								OFFSET 0.000000 10.009018 0.000000
							}
						}
					}
				}
			}
			JOINT LBackpack_Strap
			{
				OFFSET 15.223200 -7.719803 -6.610900
				CHANNELS 3 Xrotation Yrotation Zrotation
				End Site
				{
					OFFSET 0.000000 16.040596 0.000000
				}
			}
			JOINT RBackpack_Strap
			{
				OFFSET -15.223000 -7.719803 -6.610900
				CHANNELS 3 Xrotation Yrotation Zrotation
				End Site
				{
					OFFSET 0.000000 16.040596 0.000000
				}
			}
		}
	}
	JOINT BoyFacialAnim_Joint
	{
		OFFSET 1.000000 -82.208099 -1.550900
		CHANNELS 3 Xrotation Yrotation Zrotation
		End Site
		{
			OFFSET 0.000000 30.012791 0.000000
		}
	}
}
MOTION
Frames: 4
Frame Time: 0.016667
-2.698250 79.686180 -5.532446 -2.955731 -1.471786 2.108041 0.000000 0.000000 -0.000000 -18.923323 6.717237 1.835925 30.616022 7.499006 -1.050862 -8.360808 0.506275 -1.443190 0.000000 0.000000 -0.000000 0.000000 0.000000 0.000000 0.000001 0.000000 -0.000000 -7.723862 -16.517271 -13.901423 27.820979 -0.230414 -5.327599 -16.513053 -1.457422 15.322652 0.000000 0.000002 -0.000000 0.000000 0.000002 -0.000000 -0.000000 0.000002 0.000000 8.851969 2.921012 -5.089765 1.276166 0.577129 -0.622581 1.278387 0.567047 -0.629523 -6.061335 0.449845 0.950596 5.338946 4.042163 -5.183570 0.000001 0.000000 -0.000001 0.000001 0.000000 -0.000001 0.000001 0.000000 -0.000001 -0.302510 5.872714 -1.999018 -14.720688 -10.177255 -69.280986 0.000002 -33.970226 0.000011 11.041587 5.640851 -12.077327 -1.528256 3.687852 6.128905 3.939059 7.948709 0.746814 0.000001 -0.000001 0.000001 0.033131 0.675967 -5.610571 0.032964 0.674439 -5.597736 -0.000001 0.000006 -0.000004 0.069859 0.980277 -8.151091 0.078699 1.040176 -8.653175 -0.000001 -0.000001 -0.000000 0.141443 1.391201 -11.609546 0.158270 1.470742 -12.283624 -0.000000 0.000002 -0.000002 1.260532 5.698222 -14.444240 0.229457 -2.281931 -15.368571 0.000001 -0.000002 0.000001 -0.000000 -0.000004 0.000001 4.545750 12.838998 -7.835330 -1.611814 -3.214997 72.442516 -0.000000 36.829708 0.000012 4.215984 0.157733 15.844615 -1.849256 -3.581787 -6.586135 4.637200 -8.634128 -0.225395 0.000001 0.000001 -0.000002 0.097313 -1.161576 9.577299 0.097304 -1.161576 9.577313 0.000001 0.000002 0.000002 0.734446 -4.504882 10.622723 0.142214 -1.401927 11.584717 -0.000000 0.000000 -0.000000 1.799563 -8.681473 12.425410 0.204356 -1.676602 13.897321 -0.000003 -0.000001 -0.000002 3.082001 -12.378813 14.479195 0.252506 -1.860371 15.457596 0.000003 -0.000001 -0.000002 0.000002 -0.000002 0.000001 0.000000 -0.000000 0.000000 0.000000 -0.000000 0.000000 0.000000 -0.000000 0.000000 0.000000 -0.000000 0.000000 0.000000 -0.000000 0.000000 0.000000 -0.000000 -0.000000 0.000000 -0.000000 0.000000 0.000000 -0.000000 0.000000 0.000000 -0.000000 -0.000000 -0.000000 0.000000 -0.000000 -0.000000 0.000000 -0.000000 0.000000 0.000000 -0.000000 
-2.730825 79.682648 -5.636551 -2.859588 -1.543709 2.091034 0.000000 -0.000000 0.000000 -19.106913 6.737208 1.911445 30.617067 7.767778 -1.087022 -8.259967 0.522355 -1.471110 -0.000000 0.000000 -0.000000 -0.000000 0.000000 0.000000 0.000002 -0.000001 0.000000 -7.919396 -16.416192 -13.826607 27.882386 -0.094049 -5.285882 -16.580079 -1.592408 15.185011 0.000000 0.000002 -0.000000 0.000000 0.000002 -0.000000 0.000001 -0.000000 0.000000 8.974254 2.815363 -5.203168 1.296462 0.561209 -0.636463 1.298515 0.551111 -0.643279 -6.130195 0.380287 1.181956 5.083279 4.090374 -5.065638 -0.000001 0.000000 0.000000 -0.000001 0.000000 0.000000 -0.000001 0.000000 0.000000 -0.303983 5.822776 -1.781757 -14.889689 -10.799706 -69.024444 0.000008 -34.489887 0.000006 10.925307 5.810042 -12.083957 -1.528133 3.687830 6.128745 3.939055 7.948708 0.746812 0.000000 -0.000001 0.000002 0.033133 0.675966 -5.610574 0.032960 0.674434 -5.597737 -0.000002 -0.000001 -0.000002 0.069859 0.980278 -8.151093 0.078702 1.040182 -8.653180 -0.000000 0.000002 -0.000003 0.141446 1.391198 -11.609545 0.158267 1.470744 -12.283628 -0.000001 0.000003 0.000000 1.260534 5.698221 -14.444240 0.229453 -2.281934 -15.368569 0.000002 0.000000 -0.000000 0.000000 0.000005 -0.000000 4.504495 12.696254 -7.406782 -1.846145 -3.449439 72.003793 0.000005 37.086558 -0.000012 4.778069 -0.150856 16.413879 -1.849255 -3.581788 -6.586132 4.637197 -8.634128 -0.225389 0.000001 0.000002 -0.000001 0.097315 -1.161577 9.577301 0.097307 -1.161578 9.577316 -0.000005 0.000001 0.000004 0.734448 -4.504882 10.622727 0.142205 -1.401926 11.584716 0.000003 -0.000003 0.000003 1.799565 -8.681473 12.425414 0.204350 -1.676606 13.897327 -0.000000 0.000002 -0.000001 3.082005 -12.378815 14.479198 0.252505 -1.860372 15.457599 -0.000006 -0.000001 0.000000 -0.000000 0.000004 -0.000001 0.000001 0.000000 -0.000000 0.000001 0.000000 -0.000000 0.000001 0.000000 -0.000000 0.000001 0.000000 -0.000000 0.000001 0.000000 0.000000 -0.000000 0.000000 0.000000 0.000001 0.000000 -0.000000 0.000001 0.000000 0.000000 -0.000000 0.000000 0.000000 -0.000001 -0.000000 0.000000 -0.000001 -0.000000 0.000000 0.000000 -0.000000 0.000000 
-2.765702 79.680687 -5.748373 -2.751052 -1.609916 2.067933 0.000000 0.000000 -0.000000 -19.308759 6.737930 1.983460 30.608803 8.069230 -1.107414 -8.143497 0.533078 -1.512654 -0.000000 -0.000000 0.000000 -0.000000 -0.000000 0.000000 -0.000000 -0.000001 0.000000 -8.136791 -16.315217 -13.753651 27.952314 0.015008 -5.237103 -16.630730 -1.703377 15.065838 0.000000 0.000001 -0.000000 0.000000 0.000001 -0.000000 -0.000000 0.000001 0.000000 9.104226 2.687214 -5.291867 1.319393 0.540907 -0.647529 1.321271 0.530791 -0.654147 -6.190337 0.319002 1.390179 4.811083 4.139857 -4.959371 -0.000000 0.000001 -0.000000 -0.000000 0.000001 -0.000000 -0.000000 0.000001 -0.000000 -0.303281 5.756983 -1.555983 -15.042476 -11.360660 -68.812633 0.000005 -34.989208 -0.000000 10.923338 5.925826 -12.107327 -1.527920 3.687825 6.128552 3.939057 7.948709 0.746816 -0.000000 0.000000 -0.000002 0.033133 0.675962 -5.610569 0.032965 0.674437 -5.597736 0.000001 -0.000004 -0.000001 0.069861 0.980271 -8.151088 0.078704 1.040177 -8.653175 0.000001 -0.000001 -0.000003 0.141442 1.391195 -11.609544 0.158274 1.470746 -12.283628 0.000001 0.000001 -0.000002 1.260530 5.698216 -14.444238 0.229454 -2.281932 -15.368566 -0.000001 0.000001 0.000002 -0.000000 0.000002 0.000000 4.474243 12.585511 -7.073514 -2.036073 -3.701654 71.662222 0.000004 37.330184 0.000005 5.206088 -0.406958 16.986163 -1.849255 -3.581789 -6.586133 4.637196 -8.634126 -0.225391 0.000000 0.000001 0.000001 0.097317 -1.161576 9.577300 0.097306 -1.161576 9.577313 -0.000003 -0.000001 0.000002 0.734444 -4.504879 10.622729 0.142218 -1.401922 11.584712 0.000002 0.000001 0.000002 1.799568 -8.681474 12.425417 0.204351 -1.676604 13.897329 0.000004 0.000000 -0.000001 3.082003 -12.378813 14.479193 0.252502 -1.860369 15.457597 -0.000003 -0.000000 0.000000 0.000003 0.000001 -0.000001 -0.000000 -0.000000 -0.000000 -0.000000 -0.000000 -0.000000 -0.000000 -0.000000 -0.000000 -0.000000 -0.000000 -0.000000 -0.000000 -0.000000 -0.000000 -0.000000 0.000000 -0.000000 -0.000000 -0.000000 -0.000000 -0.000000 -0.000000 -0.000000 -0.000000 0.000000 -0.000000 -0.000001 0.000000 -0.000000 -0.000001 0.000000 -0.000000 0.000000 0.000000 -0.000000 
-2.808936 79.684082 -5.880751 -2.599265 -1.644405 2.029890 0.000000 -0.000000 -0.000000 -19.568622 6.674523 2.034595 30.568143 8.491296 -1.072547 -7.979199 0.498314 -1.603400 -0.000000 0.000001 -0.000000 -0.000000 0.000001 -0.000000 -0.000000 -0.000000 -0.000000 -8.422390 -16.220600 -13.690692 28.049367 0.043377 -5.159186 -16.637328 -1.752279 14.991780 -0.000000 -0.000001 -0.000000 -0.000000 -0.000001 -0.000000 -0.000002 0.000000 -0.000000 9.247513 2.490500 -5.315817 1.348061 0.507319 -0.651501 1.349748 0.497194 -0.657720 -6.227111 0.278792 1.541825 4.498673 4.198867 -4.883209 0.000001 0.000001 -0.000000 0.000001 0.000001 -0.000000 0.000001 0.000001 -0.000000 -0.297160 5.645770 -1.293703 -15.168831 -11.755816 -68.723806 0.000004 -35.439738 0.000012 11.246021 5.895240 -12.186534 -1.527494 3.687794 6.128165 3.939054 7.948709 0.746815 -0.000000 0.000001 -0.000000 0.033132 0.675965 -5.610571 0.032962 0.674437 -5.597740 -0.000001 -0.000002 -0.000002 0.069861 0.980275 -8.151089 0.078699 1.040177 -8.653176 0.000003 0.000003 -0.000003 0.141440 1.391200 -11.609546 0.158275 1.470744 -12.283628 -0.000002 0.000000 -0.000000 1.260532 5.698223 -14.444238 0.229453 -2.281934 -15.368569 0.000001 0.000002 0.000000 -0.000000 0.000003 -0.000000 4.469015 12.563350 -6.980665 -2.107499 -4.025328 71.586735 -0.000007 37.565306 0.000015 5.445490 -0.606393 17.768273 -1.849256 -3.581787 -6.586134 4.637198 -8.634125 -0.225394 0.000001 0.000002 -0.000002 0.097320 -1.161574 9.577301 0.097307 -1.161577 9.577313 -0.000001 0.000000 0.000002 0.734446 -4.504881 10.622732 0.142207 -1.401925 11.584715 0.000000 0.000002 0.000000 1.799571 -8.681472 12.425414 0.204349 -1.676602 13.897328 -0.000004 -0.000000 0.000000 3.082002 -12.378814 14.479195 0.252499 -1.860371 15.457603 0.000000 -0.000002 -0.000000 0.000001 0.000001 -0.000001 -0.000000 0.000000 0.000000 -0.000000 0.000000 0.000000 -0.000000 0.000000 0.000000 -0.000000 0.000000 0.000000 -0.000000 0.000000 0.000000 -0.000000 -0.000000 -0.000000 -0.000000 0.000000 0.000000 -0.000000 0.000000 0.000000 -0.000000 -0.000000 -0.000000 -0.000000 -0.000000 0.000000 -0.000000 -0.000000 0.000000 0.000000 -0.000000 -0.000000 
